# xmcd CD database file
#
# Track frame offsets:
#	150
#	18464
#	31372
#	45868
#	65598
#
# Disc length: 1131 seconds
#
# Revision: 0
# Processed by: cddbd v1.5.1PL0 Copyright (c) Steve Scherf et al.
# Submitted via: CDex 1.60beta1
#
DISCID=36046905
DTITLE=DT. - WOOFER LOOPER
DYEAR=2003
DGENRE=Rock
TTITLE0=TRASH
TTITLE1=CORE PUNK SURFER
TTITLE2=MAXIMAM
TTITLE3=SAMURAI
TTITLE4=渦
EXTD=YEAR: 2003
EXTT0=
EXTT1=
EXTT2=
EXTT3=
EXTT4=
PLAYORDER=
